<?xml version="1.0" encoding="UTF-8" standalone="no"?>
<svg
   xmlns:dc="http://purl.org/dc/elements/1.1/"
   xmlns:cc="http://creativecommons.org/ns#"
   xmlns:rdf="http://www.w3.org/1999/02/22-rdf-syntax-ns#"
   xmlns:svg="http://www.w3.org/2000/svg"
   xmlns="http://www.w3.org/2000/svg"
   viewBox="0 0 617.15997 398.25333"
   height="398.25333"
   width="617.15997"
   xml:space="preserve"
   id="svg2"
   version="1.1"><metadata
     id="metadata8"><rdf:RDF><cc:Work
         rdf:about=""><dc:format>image/svg+xml</dc:format><dc:type
           rdf:resource="http://purl.org/dc/dcmitype/StillImage" /></cc:Work></rdf:RDF></metadata><defs
     id="defs6" /><g
     transform="matrix(1.3333333,0,0,-1.3333333,0,398.25333)"
     id="g10"><g
       transform="scale(0.1)"
       id="g12"><path
         id="path14"
         style="fill:#2eb9ab;fill-opacity:1;fill-rule:nonzero;stroke:none"
         d="M 0,0 H 4628.67 V 2986.9 H 0 V 0" /><path
         id="path16"
         style="fill:#ffffff;fill-opacity:1;fill-rule:nonzero;stroke:none"
         d="m 712.855,2336.37 v -493.76 h 520.785 v 493.76 h 282.93 V 1049.72 h -282.93 v 555.03 H 712.855 V 1049.72 H 429.938 v 1286.65 z m 2014.675,0 V 2098.5 h -679.38 v -275.7 h 623.5 v -219.86 h -623.5 v -315.36 h 693.79 v -237.86 h -976.7 v 1286.65 z m 66.66,0 h 317.15 l 300.94,-508.17 299.14,508.17 h 315.36 l -477.54,-792.9 v -493.75 h -282.92 v 500.96 l -472.13,785.69" /><path
         id="path18"
         style="fill:#231f20;fill-opacity:1;fill-rule:nonzero;stroke:none"
         d="m 2410.74,903.609 c -9.86,-3.3 -17.1,-6.078 -21.69,-8.379 -4.6,-2.308 -4.28,-8.058 0.99,-17.25 2.61,-5.269 6.41,-8.378 11.34,-9.359 4.93,-0.992 10.35,-0.992 16.25,0 5.93,0.981 11.5,2.609 16.78,4.918 5.24,2.313 9.51,4.441 12.81,6.41 3.28,1.981 13.13,8.039 29.57,18.242 16.41,10.18 34.01,23.321 52.73,39.438 18.74,16.09 35.49,34.32 50.29,54.711 14.77,20.35 22.17,42.04 22.17,65.06 0,15.1 -3.61,27.92 -10.84,38.44 -7.23,10.51 -16.44,19.38 -27.6,26.62 -11.18,7.22 -23.17,12.64 -35.98,16.27 -12.81,3.59 -24.98,6.4 -36.48,8.37 -11.51,1.98 -21.53,3.11 -30.07,3.45 -8.54,0.32 -13.48,0.49 -14.78,0.49 -42.07,1.32 -83.79,-2.95 -125.19,-12.82 -41.41,-9.86 -80.84,-24.32 -118.29,-43.37 -37.47,-19.06 -72.3,-41.57 -104.5,-67.52 -32.2,-25.98 -60.14,-54.209 -83.79,-84.771 -23.67,-30.559 -42.39,-62.77 -56.19,-96.61 -13.8,-33.859 -21.36,-67.527 -22.67,-101.058 -1.98,-44.692 3.45,-82.961 16.26,-114.84 12.82,-31.871 30.88,-58.321 54.21,-79.352 23.32,-21.019 51.1,-36.789 83.31,-47.308 32.19,-10.512 66.69,-16.43 103.5,-17.75 49.3,-1.981 96.77,3.461 142.45,16.269 45.67,12.82 86.58,27.59 122.73,44.352 36.13,16.769 65.56,32.687 88.22,47.816 22.68,15.102 35.32,23.981 37.95,26.613 16.43,14.45 25.96,25.957 28.6,34.508 2.61,8.52 3.6,12.813 2.95,12.813 -1.97,4.59 -4.93,6.226 -8.87,4.929 -1.98,-0.66 -3.61,-1.652 -4.93,-2.953 -38.11,-29.59 -79.85,-55.547 -125.19,-77.886 -19.06,-9.852 -39.93,-19.223 -62.59,-28.102 -22.68,-8.871 -46.68,-16.75 -71.97,-23.648 -25.3,-6.903 -51.61,-12.321 -78.87,-16.262 -27.28,-3.949 -55.04,-5.25 -83.29,-3.949 -38.13,1.32 -69.66,7.398 -94.63,18.238 -24.98,10.851 -45.02,24.152 -60.15,39.93 -15.12,15.769 -26.11,32.851 -33.02,51.261 -6.89,18.391 -11.67,35.641 -14.29,51.739 -2.62,16.101 -3.79,29.902 -3.44,41.41 0.31,11.5 0.49,18.562 0.49,21.203 1.3,30.219 8.21,60.769 20.69,91.68 12.49,30.867 29.73,60.289 51.76,88.218 22,27.918 47.65,53.879 76.89,77.88 29.24,23.98 61.27,44.67 96.12,62.1 34.82,17.4 71.47,30.72 109.91,39.92 38.44,9.21 77.7,13.15 117.79,11.83 32.2,-1.32 56.35,-5.09 72.46,-11.34 16.1,-6.25 27.44,-12.97 34.02,-20.19 6.56,-7.24 9.51,-16.78 8.87,-28.6 -1.32,-23.01 -9.86,-43.86 -25.63,-62.6 -15.78,-18.73 -33.2,-34.672 -52.25,-47.8 -21.68,-15.782 -46.67,-29.911 -74.92,-42.399 z M 2801.1,563.52 c 17.07,-1.321 32.85,2.949 47.32,12.808 14.44,9.863 27.1,21.203 37.94,34.024 10.85,12.808 19.55,25.277 26.13,37.449 6.56,12.148 10.85,19.859 12.81,23.16 4.59,9.859 7.56,18.559 8.88,26.129 1.3,7.539 1.47,13.301 0.48,17.25 -0.97,3.949 -2.79,6.25 -5.42,6.91 -2.63,0.641 -4.93,-0.988 -6.89,-4.941 -5.92,-10.52 -12.99,-22.668 -21.2,-36.481 -8.23,-13.797 -17.24,-26.937 -27.1,-39.43 -9.87,-12.476 -20.56,-23.16 -32.04,-32.027 -11.51,-8.883 -23.18,-13.301 -35,-13.301 -19.71,0 -32.04,7.532 -36.97,22.668 -4.93,15.114 -7.07,33.172 -6.41,54.211 0,10.512 0.65,18.742 1.98,24.641 1.31,5.922 2.78,10.851 4.43,14.789 1.63,3.941 3.28,7.562 4.93,10.851 1.63,3.29 2.8,7.891 3.46,13.79 0.64,5.921 0.81,10.851 0.48,14.8 -0.33,3.942 -1.14,7.879 -2.46,11.821 -1.32,3.937 -3.61,6.91 -6.9,8.871 -5.92,3.277 -11.51,4.929 -16.75,4.929 -5.28,0 -10.04,-0.66 -14.31,-1.961 -4.27,-1.332 -8.05,-2.968 -11.34,-4.929 -3.28,-1.981 -5.59,-3.301 -6.89,-3.942 -1.32,-0.679 -3.45,-1.339 -6.41,-1.98 -2.95,-0.66 -5.41,0.332 -7.39,2.949 -2.63,2.621 -2.47,6.082 0.5,10.371 2.95,4.25 4.43,8.699 4.43,13.301 0,1.98 -0.33,4.578 -0.99,7.879 -0.66,3.281 -1.81,6.562 -3.44,9.859 -1.65,3.282 -3.94,6.41 -6.91,9.364 -2.95,2.968 -6.41,4.449 -10.35,4.449 -3.94,0.64 -7.73,-0.992 -11.34,-4.942 -3.61,-3.937 -6.58,-9.039 -8.87,-15.269 -2.31,-6.25 -4.11,-13.32 -5.42,-21.199 -1.32,-7.891 -1.98,-15.77 -1.98,-23.653 0,-5.277 -0.66,-10.859 -1.96,-16.758 -1.32,-5.921 -2.64,-11.511 -3.94,-16.769 -1.34,-5.262 -2.64,-9.711 -3.94,-13.301 -1.34,-3.629 -1.98,-5.769 -1.98,-6.41 -1.32,-3.301 -1.32,-6.09 0,-8.391 1.32,-2.3 3.11,-3.937 5.42,-4.929 2.3,-0.969 4.6,-1.469 6.91,-1.469 2.29,0 3.77,0.988 4.42,2.969 0.65,0 2.8,3.59 6.41,10.832 3.61,7.218 5.75,12.808 6.41,16.758 1.32,5.261 4.6,7.05 9.86,5.429 5.26,-1.648 11.17,-2.469 17.75,-2.469 3.28,0 5.92,0.821 7.88,2.469 1.98,1.621 3.61,3.11 4.93,4.43 1.3,1.301 2.8,2.121 4.44,2.461 1.64,0.332 3.77,-0.481 6.41,-2.461 1.96,-1.32 2.47,-3.457 1.48,-6.41 -0.99,-2.949 -2.15,-7.239 -3.46,-12.809 -1.32,-5.59 -2.79,-12.332 -4.43,-20.211 -1.64,-7.89 -2.15,-17.418 -1.49,-28.578 0,-4.621 0.66,-12.172 1.98,-22.68 1.3,-10.519 4.43,-21.203 9.36,-32.043 4.93,-10.847 12.66,-20.707 23.16,-29.578 10.51,-8.871 24.97,-13.648 43.39,-14.289 z m 90.19,105.968 c -8.87,-14.136 -16.91,-25.808 -24.15,-34.988 -3.29,13.801 -3.62,29.219 -0.99,46.32 2.64,17.09 6.75,33.032 12.32,47.821 5.59,14.781 11.67,26.929 18.24,36.468 6.56,9.512 12.47,13.961 17.74,13.313 4.59,-0.66 7.56,-3.301 8.87,-7.883 1.31,-4.617 1.64,-10.211 0.99,-16.769 -0.67,-6.571 -2.3,-13.79 -4.93,-21.688 -2.64,-7.883 -5.27,-15.773 -7.88,-23.652 -4.62,-11.84 -11.34,-24.809 -20.21,-38.942 m -7.4,-65.547 c 7.24,8.528 16.11,21.028 26.62,37.45 10.51,16.429 19.71,34.828 27.59,55.199 3.28,8.539 6.91,17.898 10.85,28.109 3.94,10.18 6.57,20.192 7.89,30.063 1.31,9.859 0.5,19.218 -2.47,28.09 -2.95,8.867 -9.7,16.597 -20.21,23.16 -13.14,8.547 -25.96,9.379 -38.44,2.468 -12.47,-6.89 -23.32,-17.75 -32.53,-32.519 -9.2,-14.801 -16.75,-31.07 -22.67,-48.813 -5.92,-17.726 -9.2,-33.179 -9.86,-46.328 -0.65,-13.16 0,-26.941 1.98,-41.39 1.96,-14.461 6.4,-27.782 13.3,-39.942 6.91,-12.168 16.92,-22.34 30.07,-30.547 13.14,-8.23 30.87,-12.66 53.23,-13.312 18.39,0 35.48,5.422 51.26,16.269 15.77,10.84 29.57,23.172 41.4,36.973 11.84,13.789 21.2,27.098 28.09,39.918 6.91,12.813 11.34,20.852 13.32,24.152 5.24,9.86 8.52,18.559 9.86,26.118 1.3,7.55 1.47,13.472 0.49,17.742 -0.99,4.269 -2.82,6.738 -5.42,7.398 -2.64,0.641 -4.93,-0.988 -6.91,-4.929 -5.91,-10.52 -13.15,-23.008 -21.69,-37.461 -8.54,-14.457 -18.58,-28.438 -30.06,-41.887 -11.51,-13.481 -24.49,-24.992 -38.94,-34.5 -14.46,-9.543 -30.56,-14.301 -48.31,-14.301 -15.76,0 -28.58,4.258 -38.44,12.82 m 474.16,69 c 9.84,19.707 13.13,34.161 9.84,43.368 -3.29,9.211 -7.23,9.871 -11.82,1.98 -26.29,-47.988 -49.14,-81.008 -68.52,-99.07 -19.39,-18.09 -36.63,-27.117 -51.74,-27.117 -16.44,0 -27.28,5.429 -32.54,16.269 -5.26,10.848 -7.72,23 -7.39,36.481 0.33,13.449 3.78,31.039 10.35,52.726 0.66,3.942 -0.84,7.402 -4.43,10.352 -3.63,2.968 -7.73,5.09 -12.33,6.41 -4.6,1.308 -8.87,1.801 -12.81,1.492 -3.95,-0.352 -6.25,-1.82 -6.9,-4.453 -1.33,-5.918 -3.94,-15.758 -7.88,-29.57 -3.94,-13.797 -9.05,-27.598 -15.28,-41.411 -6.27,-13.789 -13.49,-25.957 -21.69,-36.457 -8.23,-10.519 -16.93,-15.781 -26.13,-15.781 -5.92,0 -10.83,2.621 -14.79,7.899 -3.94,5.242 -6.74,12.132 -8.37,20.691 -1.65,8.531 -2.14,18.391 -1.48,29.57 0.65,11.168 2.29,22.328 4.93,33.508 2.61,11.172 6.24,22.024 10.84,32.543 4.58,10.508 9.86,19.867 15.77,28.098 5.92,8.211 12.32,14.621 19.23,19.222 6.9,4.579 13.95,6.887 21.19,6.887 8.54,-0.656 14.79,-3.117 18.73,-7.379 3.94,-4.289 6.56,-9.039 7.88,-14.308 1.98,-6.559 2.3,-13.469 0.99,-20.692 1.97,-0.66 3.94,-1.48 5.92,-2.469 1.97,-0.992 3.95,-1.14 5.91,-0.48 1.98,0.641 4.1,2.289 6.41,4.93 2.29,2.601 4.44,7.218 6.4,13.8 0,1.301 0.16,4.911 0.5,10.84 0.32,5.918 -0.98,12.149 -3.94,18.731 -2.96,6.558 -8.05,12.469 -15.28,17.738 -7.24,5.25 -18.09,8.199 -32.53,8.883 -7.89,0 -17.26,-2.473 -28.1,-7.402 -10.85,-4.93 -21.53,-12.809 -32.03,-23.661 -10.53,-10.839 -20.06,-24.82 -28.6,-41.898 -8.54,-17.09 -14.13,-37.133 -16.76,-60.133 -3.28,-23.008 -3.11,-41.738 0.51,-56.187 3.59,-14.461 8.7,-25.629 15.28,-33.512 6.54,-7.879 13.45,-13.16 20.69,-15.777 7.23,-2.633 13.13,-3.942 17.75,-3.942 8.53,-0.66 17.08,2.461 25.63,9.371 8.52,6.891 16.09,14.289 22.67,22.168 7.23,9.211 14.45,20.039 21.69,32.539 1.96,-11.187 5.9,-21.039 11.82,-29.578 5.25,-7.238 12.16,-14.14 20.7,-20.699 8.55,-6.582 20.37,-9.531 35.49,-8.871 13.81,0 27.44,4.75 40.91,14.289 13.46,9.531 25.79,20.543 36.97,33.019 11.16,12.493 20.85,24.973 29.08,37.473 8.21,12.469 13.96,22 17.26,28.578 z m 197.14,23.161 c 1.31,7.558 1.48,13.32 0.49,17.257 -0.99,3.942 -2.8,6.243 -5.42,6.903 -2.64,0.636 -4.93,-0.992 -6.91,-4.942 -5.9,-10.519 -12.66,-22.511 -20.19,-35.968 -7.57,-13.481 -16.27,-26.293 -26.13,-38.442 -9.87,-12.18 -21.05,-22.191 -33.52,-30.051 -12.5,-7.859 -26.3,-11.16 -41.41,-9.89 -9.84,0.66 -17.9,5.453 -24.15,14.351 -6.25,8.891 -10.83,19.121 -13.8,30.641 -2.95,11.539 -4.92,23.09 -5.91,34.629 -0.99,11.539 -1.16,20.93 -0.5,28.191 0.66,6.59 2.14,16.489 4.45,29.66 2.29,13.188 4.75,26.7 7.39,40.547 2.61,13.852 5.07,26.883 7.4,39.071 2.29,12.203 3.77,20.601 4.43,25.222 1.3,11.207 2.62,21.758 3.94,31.66 1.32,9.868 2.62,19.11 3.94,27.68 h 151.81 c 5.92,0 11.18,0.649 15.78,1.981 3.94,1.296 7.54,2.949 10.83,4.929 3.29,1.969 5.27,5.25 5.92,9.848 0,3.941 -1.16,6.742 -3.45,8.383 -2.31,1.636 -5.09,2.777 -8.37,3.457 -3.3,0.64 -7.24,0.64 -11.84,0 l -155.75,-0.989 2.95,29.571 c 0.66,4.578 -0.33,10.847 -2.95,18.73 -2.64,7.891 -6.25,12.469 -10.83,13.809 -7.9,2.601 -13.16,1.961 -15.79,-1.981 -2.64,-3.937 -4.6,-10.187 -5.9,-18.738 -0.68,-0.66 -1.65,-4.601 -2.97,-11.82 -1.32,-7.242 -2.95,-16.762 -4.93,-28.582 l -150.82,-0.989 c -6.56,1.301 -12.48,1.629 -17.74,0.989 -4.59,-0.68 -8.7,-1.821 -12.33,-3.457 -3.6,-1.641 -5.42,-5.102 -5.42,-10.34 0,-3.301 1.48,-5.922 4.45,-7.891 2.95,-1.98 6.07,-3.633 9.35,-4.929 3.95,-1.332 8.88,-1.981 14.8,-1.981 h 152.79 c -2.63,-16.422 -5.43,-33.851 -8.38,-52.242 -2.95,-18.41 -5.76,-36.328 -8.39,-53.731 -2.62,-17.41 -4.93,-33.187 -6.89,-47.308 -1.98,-14.149 -2.95,-25.141 -2.95,-33.031 -0.68,-12.5 -0.35,-26.957 0.97,-43.368 1.32,-16.441 4.44,-32.031 9.38,-46.832 4.93,-14.769 12.64,-27.449 23.16,-37.949 10.5,-10.519 24.97,-16.121 43.37,-16.762 19.71,-1.32 37.13,2.481 52.25,11.422 15.1,8.918 27.92,19.27 38.44,31.039 10.51,11.782 18.73,23.243 24.65,34.442 5.91,11.168 9.85,18.39 11.83,21.687 4.59,9.84 7.54,18.543 8.87,26.114 m 0.98,143.437 c -10.53,0.641 -18.09,-3.117 -22.68,-11.34 -4.62,-8.23 -7.24,-14.629 -7.88,-19.219 0,-5.269 1.13,-10.851 3.44,-16.75 2.29,-5.921 8.04,-9.871 17.25,-11.839 5.25,-1.321 11.5,0.328 18.74,4.929 7.22,4.578 11.16,10.168 11.82,16.75 0,6.571 -0.99,13.961 -2.95,22.192 -1.98,8.199 -8.23,12.968 -18.73,14.289 z m 190.25,-139.488 c 1.3,7.551 1.47,13.449 0.48,17.738 -0.97,4.27 -2.79,6.563 -5.42,6.91 -2.63,0.313 -4.93,-1.82 -6.89,-6.41 -5.92,-10.519 -13.16,-23.18 -21.69,-37.949 -8.55,-14.801 -18.24,-28.93 -29.08,-42.399 -10.85,-13.48 -22.52,-25.132 -35,-34.992 -12.49,-9.859 -25.3,-15.121 -38.44,-15.769 -12.49,-0.668 -22.35,2.3 -29.57,8.879 -7.24,6.543 -12.18,14.773 -14.8,24.632 -2.62,9.868 -3.94,20.86 -3.94,33.028 0,12.152 0.64,23.492 1.98,34.011 1.3,10.489 2.78,19.54 4.43,27.11 1.63,7.539 2.46,11.648 2.46,12.308 0,4.602 -1.65,8.043 -4.93,10.364 -3.3,2.297 -7.06,3.597 -11.34,3.949 -4.27,0.309 -8.37,-0.512 -12.31,-2.473 -3.94,-1.976 -6.91,-5.277 -8.87,-9.859 -1.33,-9.219 -2.64,-18.078 -3.94,-26.617 -1.34,-7.242 -2.47,-14.641 -3.46,-22.172 -0.99,-7.57 -1.82,-13.32 -2.46,-17.262 -0.66,-4.598 -0.35,-12.816 0.99,-24.637 1.3,-11.832 4.93,-24 10.83,-36.48 5.92,-12.481 14.45,-23.512 25.63,-33.02 11.18,-9.543 26.29,-14.293 45.35,-14.293 17.75,0 34.17,5.571 49.3,16.75 15.1,11.172 28.4,23.821 39.92,37.961 11.49,14.11 20.85,27.602 28.09,40.422 7.22,12.809 11.82,20.848 13.8,24.149 4.59,9.851 7.56,18.558 8.88,26.121 m 79.83,-103.02 c 7.89,11.84 14.8,24.649 20.7,38.438 5.26,-2.617 9.86,-3.938 13.8,-3.938 23.67,-2.621 43.22,-0.832 58.66,5.43 15.43,6.238 27.76,13.301 36.96,21.187 10.51,9.204 18.74,20.043 24.66,32.543 3.28,13.118 3.28,22.168 0,27.098 -3.3,4.93 -6.58,4.102 -9.86,-2.469 l -9.87,-14.769 c -4.6,-7.903 -10.52,-15.141 -17.74,-21.692 -5.9,-5.281 -13.3,-10.211 -22.17,-14.789 -8.88,-4.601 -18.91,-6.582 -30.08,-5.922 -5.26,0.641 -11,0.993 -17.24,0.993 -6.25,0 -12,1.629 -17.26,4.929 5.26,14.45 9.03,27.918 11.34,40.418 2.29,12.473 3.11,22.66 2.47,30.563 -0.66,17.07 -1.65,31.527 -2.96,43.371 -1.33,11.828 -7.24,18.058 -17.74,18.719 -1.98,0 -4.62,-1.653 -7.88,-4.911 -3.3,-3.3 -6.41,-7.57 -9.38,-12.832 -2.95,-5.257 -5.59,-11.5 -7.88,-18.718 -2.31,-7.239 -3.46,-14.469 -3.46,-21.692 -0.66,-14.457 -1.47,-28.09 -2.46,-40.91 -0.98,-12.808 0.81,-24.828 5.43,-35.988 -6.58,-21.031 -14.15,-39.762 -22.68,-56.192 -8.55,-16.418 -17.1,-23.988 -25.62,-22.668 -7.89,1.309 -13.81,9.032 -17.75,23.168 -3.94,14.122 -6.75,29.731 -8.38,46.821 -1.65,17.082 -2.14,33.519 -1.48,49.293 0.64,15.777 1.3,25.629 1.98,29.57 1.3,7.219 0.14,12.488 -3.46,15.777 -3.62,3.282 -7.88,4.93 -12.81,4.93 -4.93,0 -9.71,-1.648 -14.29,-4.93 -4.62,-3.289 -6.91,-7.57 -6.91,-12.808 -0.65,-3.942 -1.13,-11.34 -1.48,-22.192 -0.33,-10.839 -0.15,-23.16 0.49,-36.968 0.67,-13.801 1.98,-28.262 3.96,-43.371 1.96,-15.122 5.24,-28.93 9.84,-41.399 4.6,-12.5 10.85,-22.84 18.74,-31.062 7.88,-8.207 17.4,-12.309 28.58,-12.309 13.14,0 23.49,5.25 31.06,15.77 7.54,10.5 15.28,21.679 23.16,33.511 z m 114.84,72.457 c -8.87,-14.136 -16.91,-25.808 -24.15,-34.988 -3.28,13.801 -3.59,29.219 -0.99,46.32 2.64,17.09 6.76,33.032 12.33,47.821 5.59,14.781 11.68,26.929 18.23,36.468 6.57,9.512 12.49,13.961 17.75,13.313 4.6,-0.66 7.55,-3.301 8.87,-7.883 1.32,-4.617 1.63,-10.211 0.99,-16.769 -0.66,-6.571 -2.31,-13.79 -4.93,-21.688 -2.62,-7.883 -5.26,-15.773 -7.89,-23.652 -4.6,-11.84 -11.33,-24.809 -20.21,-38.942 m -7.39,-65.547 c 7.24,8.528 16.11,21.028 26.62,37.45 10.5,16.429 19.72,34.828 27.6,55.199 3.28,8.539 6.9,17.898 10.84,28.109 3.96,10.18 6.56,20.192 7.9,30.063 1.3,9.859 0.48,19.218 -2.47,28.09 -2.97,8.867 -9.7,16.597 -20.21,23.16 -13.16,8.547 -25.97,9.379 -38.44,2.468 -12.49,-6.89 -23.32,-17.75 -32.54,-32.519 -9.19,-14.801 -16.76,-31.07 -22.68,-48.813 -5.9,-17.726 -9.18,-33.179 -9.84,-46.328 -0.66,-13.16 0,-26.941 1.96,-41.39 1.98,-14.461 6.41,-27.782 13.32,-39.942 6.89,-12.168 16.93,-22.34 30.05,-30.547 13.16,-8.23 30.89,-12.66 53.24,-13.312 18.39,0 35.49,5.422 51.26,16.269 15.78,10.84 29.57,23.172 41.41,36.973 11.82,13.789 21.18,27.098 28.09,39.918 6.9,12.813 11.34,20.852 13.3,24.152 5.26,9.86 8.54,18.559 9.86,26.118 1.31,7.55 1.48,13.472 0.49,17.742 -0.97,4.269 -2.8,6.738 -5.42,7.398 -2.64,0.641 -4.93,-0.988 -6.89,-4.929 -5.92,-10.52 -13.16,-23.008 -21.69,-37.461 -8.56,-14.457 -18.58,-28.438 -30.07,-41.887 -11.51,-13.481 -24.48,-24.992 -38.95,-34.5 -14.46,-9.543 -30.55,-14.301 -48.28,-14.301 -15.79,0 -28.6,4.258 -38.46,12.82" /></g></g></svg>